<svg width="168" height="215" viewBox="0 0 168 215" fill="none" xmlns="http://www.w3.org/2000/svg">
<path fill-rule="evenodd" clip-rule="evenodd" d="M129.999 35.8129L161.706 126.404C172.856 158.263 149.21 191.591 115.457 191.591H52.0428C18.2892 191.591 -5.35681 158.263 5.79369 126.404L37.5007 35.8128C52.8134 -7.93764 114.686 -7.93758 129.999 35.8129ZM34.6691 34.8217C50.9193 -11.6073 116.58 -11.6072 132.83 34.8218L164.537 125.413C176.371 159.222 151.277 194.591 115.457 194.591H52.0428C16.2226 194.591 -8.87107 159.222 2.96212 125.413L34.6691 34.8217ZM83.7497 214.591C87.6157 214.591 90.7497 211.457 90.7497 207.591C90.7497 203.725 87.6157 200.591 83.7497 200.591C79.8837 200.591 76.7497 203.725 76.7497 207.591C76.7497 211.457 79.8837 214.591 83.7497 214.591Z" fill="black"/>
</svg>
